<?xml version="1.0" encoding="UTF-8"?>
<svg version="1.1" xmlns="http://www.w3.org/2000/svg" width="1024" height="1024">
<path d="M0 0 C1.73113816 2.6422635 2.06159169 4.66479226 2.1875 7.8125 C-0.00424098 12.54412853 -3.43478054 15.32859591 -7.375 18.5625 C-8.64274744 19.62532433 -9.90967001 20.6891333 -11.17578125 21.75390625 C-11.79662598 22.27355957 -12.4174707 22.79321289 -13.05712891 23.32861328 C-16.2617121 26.03757804 -19.36012157 28.86157798 -22.46484375 31.68359375 C-24.03051848 33.10338198 -25.60612323 34.51229585 -27.19140625 35.91015625 C-36.9810281 44.56839323 -46.47789245 53.72949208 -54.8125 63.8125 C-55.26028809 64.34649414 -55.70807617 64.88048828 -56.16943359 65.43066406 C-101.91766974 120.07155128 -125.215644 183.90340899 -119.125 255.25 C-114.18041277 304.57051657 -95.61947119 348.96050942 -63.8125 386.8125 C-61.00082348 383.35300253 -58.30892951 379.82077893 -55.65161133 376.24291992 C-50.22438477 368.93573611 -44.6395183 361.80704473 -38.8125 354.8125 C-37.31078806 352.98056868 -35.81080836 351.1472161 -34.3125 349.3125 C-33.56355469 348.39726562 -32.81460937 347.48203125 -32.04296875 346.5390625 C-30.60750065 344.78432216 -29.17256204 343.02914845 -27.73828125 341.2734375 C-21.39384314 333.51000307 -15.01903286 325.77172458 -8.64306641 318.03417969 C-5.69882412 314.46087951 -2.75568902 310.88666772 0.1875 307.3125 C3.74550806 302.9917046 7.30381052 298.67115307 10.86328125 294.3515625 C19.3253702 284.08177372 19.3253702 284.08177372 27.75 273.78125 C29.75950567 271.33377515 31.78236773 268.89907261 33.8125 266.46875 C34.45123047 265.70111328 35.08996094 264.93347656 35.74804688 264.14257812 C37.02181963 262.61225497 38.29906141 261.08481134 39.58007812 259.56054688 C40.16208984 258.85994141 40.74410156 258.15933594 41.34375 257.4375 C41.86775391 256.81101562 42.39175781 256.18453125 42.93164062 255.5390625 C44.38499829 253.72385175 44.38499829 253.72385175 45.1875 250.8125 C43.55984074 248.27825843 43.55984074 248.27825843 41.25 245.5625 C23.30839322 222.55630604 14.77176072 190.24279323 15.125 161.25 C15.12951172 160.52748047 15.13402344 159.80496094 15.13867188 159.06054688 C15.15025721 157.31116056 15.16818238 155.56181801 15.1875 153.8125 C21.31197011 157.81685695 27.25807415 162.00352852 33.125 166.375 C39.47366625 171.07884987 45.84011519 175.75486993 52.25 180.375 C52.98863281 180.90754395 53.72726562 181.44008789 54.48828125 181.98876953 C56.7208192 183.59742417 58.95402745 185.20514328 61.1875 186.8125 C71.19300398 194.01313208 81.16438478 201.25500786 91.07958984 208.57958984 C96.44824202 212.54151228 101.83869446 216.47155062 107.25 220.375 C107.98573242 220.90593262 108.72146484 221.43686523 109.47949219 221.98388672 C113.25573881 224.70639332 117.03731201 227.42124806 120.82421875 230.12890625 C124.59845597 232.83064565 128.35832063 235.55116004 132.10498047 238.29101562 C133.44207514 239.26789417 134.78201432 240.24089782 136.12548828 241.20898438 C163.69173503 261.17502088 187.20787314 296.0511236 193.1875 329.8125 C193.49769954 332.87788384 193.63804555 335.919977 193.6875 339 C193.70603027 339.71913574 193.72456055 340.43827148 193.74365234 341.17919922 C193.70424659 344.42515152 193.33500463 346.56678437 191.65625 349.36328125 C188.79366117 351.04369336 186.86764068 351.27485719 183.60449219 350.67578125 C178.14783268 348.7268168 173.52043071 345.11770588 168.8125 341.8125 C167.71061102 341.05326964 166.60775269 340.2954441 165.50390625 339.5390625 C163.49449866 338.15961788 161.48959204 336.77357736 159.49072266 335.37890625 C157.29455924 333.81053136 157.29455924 333.81053136 155.1875 332.8125 C154.98640625 333.46992188 154.7853125 334.12734375 154.578125 334.8046875 C152.63095351 339.01626628 149.83214572 342.33306059 146.9375 345.9375 C141.9441191 352.25174812 137.05950628 358.62342822 132.3125 365.125 C127.34745203 371.91448607 122.30068289 378.63386912 117.1875 385.3125 C110.85138474 393.59408111 104.61183745 401.93935781 98.4609375 410.359375 C96.3320359 413.27101661 94.17213273 416.15395254 91.9765625 419.015625 C84.42243177 428.91422464 79.5703229 436.94776532 81.1875 449.8125 C83.65380649 459.23184003 88.67724067 466.80847048 97.0625 471.8046875 C127.28908254 486.14008878 177.66522343 466.74945348 207.32421875 456.34375 C234.89138065 446.35098501 262.3834103 432.37050647 285.1875 413.8125 C286.19941406 413.00554687 287.21132813 412.19859375 288.25390625 411.3671875 C303.86042696 398.71484599 317.66272975 384.26344718 329.1875 367.8125 C329.59226562 367.24176758 329.99703125 366.67103516 330.4140625 366.08300781 C351.52592383 335.9770627 363.05907611 300.94865682 368.1875 264.8125 C368.30609375 263.98024902 368.4246875 263.14799805 368.546875 262.29052734 C377.56195984 195.38840223 357.7175908 132.3597397 317.33203125 79.01953125 C312.31485521 72.48551411 307.04526186 66.28319988 301.4375 60.24609375 C299.54803949 58.20245851 297.73408082 56.12445682 295.9375 54 C288.08014172 44.96683751 279.35199155 36.50675226 270.1875 28.8125 C268.45304257 27.32804479 266.72175337 25.83993207 264.99023438 24.35205078 C263.2125777 22.82522054 261.43293514 21.30074984 259.65234375 19.77734375 C259.08870117 19.29241455 258.52505859 18.80748535 257.94433594 18.30786133 C256.71826823 17.26427257 255.48095487 16.23381515 254.23535156 15.21362305 C253.60467773 14.69195557 252.97400391 14.17028809 252.32421875 13.6328125 C251.75018311 13.16504395 251.17614746 12.69727539 250.5847168 12.21533203 C249.1875 10.8125 249.1875 10.8125 248.0625 7.75 C248.21282307 4.21740793 249.02935226 2.58726137 251.1875 -0.1875 C255.13221557 -2.81731038 257.7679233 -2.03941087 262.1875 -1.1875 C307.9365037 8.59501912 347.79296002 30.79156367 382.69189453 61.50048828 C384.05536567 62.69658588 385.4313443 63.87838744 386.80859375 65.05859375 C391.05301327 68.7304103 394.82868125 72.53783527 398.44921875 76.82421875 C400.23382172 78.86548372 402.1151747 80.73912875 404.0625 82.625 C408.33037361 86.85214962 412.10348179 91.38765252 415.82714844 96.09716797 C416.79406067 97.31639363 417.76667534 98.53110644 418.74316406 99.74267578 C438.28405293 123.99462055 453.40087729 150.56501406 467.04931641 178.48852539 C468.08447643 180.60214363 469.13171774 182.70912219 470.1875 184.8125 C471.8375 184.8125 473.4875 184.8125 475.1875 184.8125 C475.17861755 183.72113235 475.16973511 182.62976471 475.1605835 181.50532532 C475.07949771 171.22035603 475.01953457 160.93545158 474.98025131 150.65023518 C474.9593764 145.36247244 474.93106022 140.07496774 474.88574219 134.78735352 C474.84228144 129.68451081 474.81836217 124.58191631 474.80799103 119.47890282 C474.8006001 117.53202596 474.78616734 115.58516269 474.76457977 113.63839149 C474.73554279 110.91137968 474.73154412 108.18539348 474.73339844 105.45825195 C474.71901733 104.65336334 474.70463623 103.84847473 474.68981934 103.01919556 C474.71726649 99.28887145 475.05526133 97.03134714 477.0010376 93.811203 C479.1875 91.8125 479.1875 91.8125 482.625 91.1875 C487.99430866 92.12948398 490.18446485 95.42239378 493.29296875 99.73046875 C535.95105073 166.71886391 551.4537209 249.1357588 553.8972168 327.59521484 C553.91543638 331.83960294 553.91543638 331.83960294 555.1875 335.8125 C556.1775 335.8125 557.1675 335.8125 558.1875 335.8125 C565.25166212 321.06160716 571.10310077 306.47007952 575.296875 290.66015625 C575.63203125 289.41105469 575.9671875 288.16195313 576.3125 286.875 C576.58320312 285.79347656 576.85390625 284.71195312 577.1328125 283.59765625 C578.32841732 280.44037389 579.54107557 278.88831991 582.1875 276.8125 C585.78760518 276.36248685 588.12408504 276.19976343 591.30859375 278.03466797 C593.60159555 280.20431962 594.03222133 281.63967453 594.75 284.6953125 C594.98750977 285.68515137 595.22501953 286.67499023 595.46972656 287.69482422 C595.7065918 288.76490723 595.94345703 289.83499023 596.1875 290.9375 C596.44241211 292.04754395 596.69732422 293.15758789 596.95996094 294.30126953 C599.58456905 306.04250192 601.64177003 317.88195689 603.1875 329.8125 C603.27470306 330.46776672 603.36190613 331.12303345 603.45175171 331.79815674 C605.25689463 345.67987054 605.54909832 359.45143691 605.5 373.4375 C605.49784485 374.5425589 605.4956897 375.6476178 605.49346924 376.78616333 C605.44380336 392.64809545 605.18670599 408.18891882 602.1875 423.8125 C601.99414062 424.86163574 601.80078125 425.91077148 601.6015625 426.99169922 C591.43439658 480.78510716 565.95097793 527.56227097 528.1875 566.8125 C527.68863281 567.33328125 527.18976562 567.8540625 526.67578125 568.390625 C520.74087553 574.55438313 514.65835581 580.28683521 507.9453125 585.61328125 C505.0929936 587.88786417 502.33256241 590.25119993 499.5625 592.625 C483.79610964 605.75351295 466.19434406 617.02420519 448.1875 626.8125 C448.24808594 627.38653564 448.30867187 627.96057129 448.37109375 628.55200195 C451.02718723 654.69153731 451.93119762 681.74050403 448.1875 707.8125 C448.06391113 708.69663574 447.94032227 709.58077148 447.81298828 710.49169922 C439.4540641 768.29492644 413.46715252 824.34127164 373.1875 866.8125 C372.05602253 868.11942004 370.93067189 869.43167801 369.8125 870.75 C362.52378578 879.09951301 354.62636415 886.73202727 345.94140625 893.61328125 C343.10275173 895.88017841 340.37202915 898.24827189 337.625 900.625 C329.93620612 907.03232823 321.63123125 912.45762722 313.1875 917.8125 C312.51654297 918.24030762 311.84558594 918.66811523 311.15429688 919.10888672 C275.85811641 941.37657214 216.06391345 968.40130837 173.1875 959.8125 C170.66355633 957.56011989 170.2366578 956.15660459 169.7578125 952.8046875 C170.28955801 949.10180514 171.18697523 948.25582966 174.0625 945.9375 C174.88878906 945.25558594 175.71507812 944.57367187 176.56640625 943.87109375 C177.43136719 943.19175781 178.29632812 942.51242187 179.1875 941.8125 C180.79193049 940.54199976 182.39609628 939.27116518 184 938 C184.82757812 937.34515625 185.65515625 936.6903125 186.5078125 936.015625 C191.59420926 931.83380609 196.42472759 927.35801506 201.1875 922.8125 C202.01846191 922.02637329 202.01846191 922.02637329 202.86621094 921.22436523 C207.41288222 916.81748449 211.26946457 912.06177066 215.0625 907 C215.64257812 906.23751953 216.22265625 905.47503906 216.8203125 904.68945312 C219.7543895 900.90971793 219.7543895 900.90971793 222.1875 896.8125 C221.07375 897.245625 219.96 897.67875 218.8125 898.125 C172.92609297 913.13721958 103.76834897 909.72250329 60.1875 888.8125 C59.1975 888.1525 58.2075 887.4925 57.1875 886.8125 C57 883.1875 57 883.1875 57.1875 879.8125 C62.95942785 876.26601616 69.07706947 875.65599714 75.6875 874.625 C91.15684361 872.0608441 106.11275982 868.08792578 121.1875 863.8125 C120.50985596 863.74780518 119.83221191 863.68311035 119.1340332 863.61645508 C66.71864109 858.46815967 21.27148085 836.90833595 -12.8125 795.8125 C-33.98899224 768.99009656 -33.98899224 768.99009656 -33.8125 759.8125 C-32.32179132 755.73266573 -30.80631605 752.7043076 -26.8125 750.8125 C-19.23875072 749.60614114 -14.45627304 752.16203106 -8.1875 756.125 C-6.32526516 757.23919719 -4.45924338 758.34708491 -2.58984375 759.44921875 C-1.6344873 760.01302246 -0.67913086 760.57682617 0.30517578 761.15771484 C42.84996193 785.58330865 93.88575444 797.02291325 142.6875 797.0625 C143.44528748 797.06317474 144.20307495 797.06384949 144.98382568 797.06454468 C209.23445227 796.97473179 272.6034798 776.48290142 324.29980469 738.20483398 C325.63359802 737.22104928 326.97926824 736.25327089 328.33300781 735.29711914 C334.00477331 731.22417136 337.07290015 727.58506633 339.1875 720.8125 C340.15486781 714.65730127 339.74526756 709.10886537 336.5859375 703.6640625 C332.64610112 698.4476311 327.7473245 693.99326841 321.1875 692.8125 C309.41267646 691.73844515 301.41947743 696.63274514 291.70407104 702.67578125 C289.21404188 704.2232678 286.71331484 705.75305339 284.21290588 707.28369141 C282.95959916 708.0509297 281.70669754 708.81883014 280.45420837 709.58740234 C260.19340719 722.01870479 239.94483842 732.69250143 217.1875 739.8125 C216.32817871 740.08191406 215.46885742 740.35132813 214.58349609 740.62890625 C195.07986994 746.61556147 174.61276158 750.32109726 154.1875 750.8125 C153.42759766 750.83296387 152.66769531 750.85342773 151.88476562 750.87451172 C101.32600843 752.07216435 48.46041712 738.90847127 7.1875 708.8125 C6.56536621 708.36261719 5.94323242 707.91273438 5.30224609 707.44921875 C-2.35932677 701.89049922 -9.78880329 696.23081592 -16.69921875 689.75 C-17.39660156 689.110625 -18.09398437 688.47125 -18.8125 687.8125 C-19.52116211 687.14565186 -20.22982422 686.47880371 -20.95996094 685.79174805 C-24.39807175 683.40619821 -27.51838077 682.79671664 -31.56640625 682.20703125 C-33.14025064 681.94852158 -34.71406098 681.68980457 -36.2878418 681.4309082 C-37.11569183 681.30044098 -37.94354187 681.16997375 -38.79647827 681.03555298 C-89.77879226 672.91813414 -138.66373429 656.94975583 -184.8125 633.8125 C-186.11574219 633.1628125 -186.11574219 633.1628125 -187.4453125 632.5 C-214.10316444 619.12929056 -239.63225355 602.06724956 -261.6015625 581.83984375 C-263.55232911 580.0510666 -265.54230395 578.33406881 -267.5625 576.625 C-277.57356184 567.8729358 -286.6042043 558.26071059 -294.8125 547.8125 C-295.7406338 546.69423817 -296.67180038 545.57848878 -297.60546875 544.46484375 C-305.63199015 534.81253153 -312.39635608 524.59294698 -318.8125 513.8125 C-319.25867676 513.06597168 -319.70485352 512.31944336 -320.16455078 511.55029297 C-333.79372887 488.51957657 -343.17536588 463.37020025 -349.125 437.3125 C-349.35533936 436.31911621 -349.58567871 435.32573242 -349.82299805 434.30224609 C-354.06008947 414.66391042 -355.36828922 394.91988889 -355.25 374.875 C-355.24695862 373.77097839 -355.24391724 372.66695679 -355.24078369 371.52947998 C-355.12101391 341.95273073 -354.22908549 306.19348982 -341.8125 278.8125 C-338.0919164 276.33211093 -336.21453429 276.34912797 -331.8125 276.8125 C-328.48073228 279.4991366 -327.18796357 281.79475092 -326.1015625 285.890625 C-325.82957031 286.87877197 -325.55757813 287.86691895 -325.27734375 288.88500977 C-325.00019531 289.93358154 -324.72304688 290.98215332 -324.4375 292.0625 C-320.18523378 307.33666765 -314.73424883 321.5594314 -307.8125 335.8125 C-306.8225 335.8125 -305.8325 335.8125 -304.8125 335.8125 C-303.33300648 332.85351295 -303.5517038 330.090025 -303.41796875 326.7890625 C-303.35203223 325.29700604 -303.28534663 323.80498255 -303.21801758 322.31298828 C-303.16576523 321.12385834 -303.16576523 321.12385834 -303.11245728 319.91070557 C-300.2701766 257.40212732 -288.8562997 195.41711906 -263.8125 137.8125 C-263.45833008 136.98830566 -263.10416016 136.16411133 -262.73925781 135.31494141 C-246.11521717 96.96385858 -246.11521717 96.96385858 -235.8125 91.8125 C-231.91592135 91.29295618 -230.3441619 91.41669328 -227.14875793 93.795578 C-224.14109807 97.67951354 -224.13964006 100.74646721 -224.24487305 105.45825195 C-224.24377785 106.74681847 -224.24377785 106.74681847 -224.24266052 108.06141663 C-224.24613516 110.89185429 -224.28498967 113.72063224 -224.32421875 116.55078125 C-224.33354733 118.51660768 -224.34066323 120.48244575 -224.34565735 122.44828796 C-224.36472352 127.61561325 -224.41382137 132.78223282 -224.46917725 137.94927979 C-224.52037774 143.22455296 -224.54317312 148.49994046 -224.56835938 153.77539062 C-224.62194021 164.12140336 -224.70724869 174.46689293 -224.8125 184.8125 C-223.1625 184.8125 -221.5125 184.8125 -219.8125 184.8125 C-219.37421875 183.92433594 -218.9359375 183.03617188 -218.484375 182.12109375 C-199.58219955 143.97019447 -178.45800157 106.57559455 -147.62890625 76.62890625 C-145.68358115 74.75571986 -145.68358115 74.75571986 -143.75 72.1875 C-141.4538661 69.37288425 -138.88220221 67.16324188 -136.12109375 64.8125 C-133.6210219 62.64661712 -131.22455851 60.38834513 -128.8125 58.125 C-121.88041892 51.81527426 -114.42764186 46.26723908 -106.8125 40.8125 C-105.90806152 40.1628125 -105.90806152 40.1628125 -104.98535156 39.5 C-77.52165883 19.98110677 -46.47342925 7.17871823 -13.9140625 -0.97265625 C-12.88877441 -1.23054932 -11.86348633 -1.48844238 -10.80712891 -1.75415039 C-6.88640976 -2.32151355 -3.37714006 -2.21260901 0 0 Z " fill="#FE6722" transform="translate(386.8125,28.1875)"/>
<path d="M0 0 C45.7490037 9.78251912 85.60546002 31.97906367 120.50439453 62.68798828 C121.86786567 63.88408588 123.2438443 65.06588744 124.62109375 66.24609375 C128.86551327 69.9179103 132.64118125 73.72533527 136.26171875 78.01171875 C138.04632172 80.05298372 139.9276747 81.92662875 141.875 83.8125 C146.14287361 88.03964962 149.91598179 92.57515252 153.63964844 97.28466797 C154.60656067 98.50389363 155.57917534 99.71860644 156.55566406 100.93017578 C176.09655293 125.18212055 191.21337729 151.75251406 204.86181641 179.67602539 C205.89697643 181.78964363 206.94421774 183.89662219 208 186 C209.65 186 211.3 186 213 186 C212.99111755 184.90863235 212.98223511 183.81726471 212.9730835 182.69282532 C212.89199771 172.40785603 212.83203457 162.12295158 212.79275131 151.83773518 C212.7718764 146.54997244 212.74356022 141.26246774 212.69824219 135.97485352 C212.65478144 130.87201081 212.63086217 125.76941631 212.62049103 120.66640282 C212.6131001 118.71952596 212.59866734 116.77266269 212.57707977 114.82589149 C212.54804279 112.09887968 212.54404412 109.37289348 212.54589844 106.64575195 C212.53151733 105.84086334 212.51713623 105.03597473 212.50231934 104.20669556 C212.52976649 100.47637145 212.86776133 98.21884714 214.8135376 94.998703 C217 93 217 93 220.4375 92.375 C225.80680866 93.31698398 227.99696485 96.60989378 231.10546875 100.91796875 C273.76355073 167.90636391 289.2662209 250.3232588 291.7097168 328.78271484 C291.72793638 333.02710294 291.72793638 333.02710294 293 337 C293.99 337 294.98 337 296 337 C303.06416212 322.24910716 308.91560077 307.65757952 313.109375 291.84765625 C313.61210938 289.97400391 313.61210938 289.97400391 314.125 288.0625 C314.39570312 286.98097656 314.66640625 285.89945312 314.9453125 284.78515625 C316.14091732 281.62787389 317.35357557 280.07581991 320 278 C323.60010518 277.54998685 325.93658504 277.38726343 329.12109375 279.22216797 C331.41409555 281.39181962 331.84472133 282.82717453 332.5625 285.8828125 C332.80000977 286.87265137 333.03751953 287.86249023 333.28222656 288.88232422 C333.63752441 290.48744873 333.63752441 290.48744873 334 292.125 C334.25491211 293.23504395 334.50982422 294.34508789 334.77246094 295.48876953 C337.39706905 307.23000192 339.45427003 319.06945689 341 331 C341.08720306 331.65526672 341.17440613 332.31053345 341.26425171 332.98565674 C343.06939463 346.86737054 343.36159832 360.63893691 343.3125 374.625 C343.31034485 375.7300589 343.3081897 376.8351178 343.30596924 377.97366333 C343.25630336 393.83559545 342.99920599 409.37641882 340 425 C339.80664062 426.04913574 339.61328125 427.09827148 339.4140625 428.17919922 C329.24689658 481.97260716 303.76347793 528.74977097 266 568 C265.25169922 568.78117188 265.25169922 568.78117188 264.48828125 569.578125 C258.55337553 575.74188313 252.47085581 581.47433521 245.7578125 586.80078125 C242.9054936 589.07536417 240.14506241 591.43869993 237.375 593.8125 C221.00724618 607.44176219 201.43850323 622.11782341 181.515625 629.98046875 C178.910402 631.03631223 176.5678419 632.29865687 174.125 633.6875 C167.24257082 637.48248431 160.15086774 640.75403723 153 644 C151.92540527 644.49185791 151.92540527 644.49185791 150.82910156 644.99365234 C131.45478244 653.84842117 111.49923225 661.17702968 91 667 C89.75992188 667.35578125 88.51984375 667.7115625 87.2421875 668.078125 C69.45502619 673.13185316 51.60906417 677.98832842 33.29199219 680.66455078 C30.76826158 681.03391655 28.24747033 681.42044526 25.7265625 681.80859375 C17.31821003 683.09476476 17.31821003 683.09476476 13.18579102 683.68603516 C11.24302788 683.96509172 9.30291938 684.26249152 7.36328125 684.5625 C-22.06697304 688.10259755 -52.73964873 684.06621903 -77 666 C-78.77020988 664.79075349 -80.54106309 663.58244831 -82.3125 662.375 C-85.53599982 660.16371027 -88.39064976 657.92581605 -91 655 C-91 654.34 -91 653.68 -91 653 C-91.86625 652.64035156 -91.86625 652.64035156 -92.75 652.2734375 C-95.44439132 650.74848686 -96.99741362 648.97960352 -99 646.625 C-100.97220249 644.32152913 -102.92119601 642.07791522 -105.078125 639.9453125 C-116.05525718 628.83431286 -122.19217513 611.84756521 -126 597 C-126.47953125 595.15921875 -126.47953125 595.15921875 -126.96875 593.28125 C-133.54458526 563.81176607 -127.06508759 535.54434223 -114 509 C-113.34 509 -112.68 509 -112 509 C-111.87625 508.195625 -111.87625 508.195625 -111.75 507.375 C-110.73324483 504.15527529 -108.93436667 501.72160891 -107 499 C-106.4534375 498.16984375 -105.906875 497.3396875 -105.34375 496.484375 C-100.42461568 489.26695661 -94.89074909 484.2882493 -88 479 C-86.164673 477.43984226 -84.33132398 475.87735458 -82.5 474.3125 C-78.0895478 470.69188523 -73.5843683 467.88037904 -68.5078125 465.2890625 C-65.96305104 464.0257555 -65.96305104 464.0257555 -63.51171875 462.44140625 C-60.92280392 460.95569929 -58.55529203 460.11548177 -55.6875 459.3125 C-54.80449219 459.06113281 -53.92148437 458.80976563 -53.01171875 458.55078125 C-52.01591797 458.27814453 -52.01591797 458.27814453 -51 458 C-51 457.34 -51 456.68 -51 456 C-50.20287598 455.66959717 -50.20287598 455.66959717 -49.38964844 455.33251953 C-23.5312253 444.56279083 1.00600964 432.50027949 23 415 C23.55075195 414.5663916 24.10150391 414.1327832 24.66894531 413.68603516 C40.85789567 400.84532192 55.14972572 385.91558549 67 369 C67.40476562 368.42926758 67.80953125 367.85853516 68.2265625 367.27050781 C89.33842383 337.1645627 100.87157611 302.13615682 106 266 C106.11859375 265.16774902 106.2371875 264.33549805 106.359375 263.47802734 C115.37445984 196.57590223 95.5300908 133.5472397 55.14453125 80.20703125 C50.12735521 73.67301411 44.85776186 67.47069988 39.25 61.43359375 C37.36053949 59.38995851 35.54658082 57.31195682 33.75 55.1875 C25.89264172 46.15433751 17.16449155 37.69425226 8 30 C6.26554257 28.51554479 4.53425337 27.02743207 2.80273438 25.53955078 C1.0250777 24.01272054 -0.75456486 22.48824984 -2.53515625 20.96484375 C-3.09879883 20.47991455 -3.66244141 19.99498535 -4.24316406 19.49536133 C-5.46923177 18.45177257 -6.70654513 17.42131515 -7.95214844 16.40112305 C-8.89815918 15.61862183 -8.89815918 15.61862183 -9.86328125 14.8203125 C-10.43731689 14.35254395 -11.01135254 13.88477539 -11.6027832 13.40283203 C-13 12 -13 12 -14.125 8.9375 C-13.97467693 5.40490793 -13.15814774 3.77476137 -11 1 C-7.05528443 -1.62981038 -4.4195767 -0.85191087 0 0 Z " fill="#F8302F" transform="translate(649,27)"/>
<path d="M0 0 C1.73113816 2.6422635 2.06159169 4.66479226 2.1875 7.8125 C-0.00424098 12.54412853 -3.43478054 15.32859591 -7.375 18.5625 C-8.64274744 19.62532433 -9.90967001 20.6891333 -11.17578125 21.75390625 C-11.79662598 22.27355957 -12.4174707 22.79321289 -13.05712891 23.32861328 C-16.2617121 26.03757804 -19.36012157 28.86157798 -22.46484375 31.68359375 C-24.03051848 33.10338198 -25.60612323 34.51229585 -27.19140625 35.91015625 C-36.9810281 44.56839323 -46.47789245 53.72949208 -54.8125 63.8125 C-55.26028809 64.34649414 -55.70807617 64.88048828 -56.16943359 65.43066406 C-67.99662074 79.55684801 -78.53059148 94.19589777 -87.80493164 110.12597656 C-90.24387181 114.30220359 -92.77804653 118.03962439 -95.8125 121.8125 C-106.41489248 137.74947624 -115.3309937 154.67890402 -123.8125 171.8125 C-124.31990723 172.83053711 -124.82731445 173.84857422 -125.35009766 174.89746094 C-138.71481051 201.9615549 -149.33924792 230.85617222 -157.8125 259.8125 C-158.28478027 261.39417969 -158.28478027 261.39417969 -158.76660156 263.0078125 C-163.77446002 279.80590125 -168.14454925 296.67254322 -171.8125 313.8125 C-172.14677002 315.33713867 -172.14677002 315.33713867 -172.48779297 316.89257812 C-176.1459368 333.73992972 -178.24416986 350.64967834 -180.015625 367.77734375 C-180.12534134 368.83103149 -180.12534134 368.83103149 -180.23727417 369.90600586 C-180.55251127 372.99597997 -180.83040118 376.08090097 -181.03710938 379.18017578 C-181.13475586 380.63979736 -181.13475586 380.63979736 -181.234375 382.12890625 C-181.2765918 382.9494751 -181.31880859 383.77004395 -181.36230469 384.61547852 C-181.92319091 387.35268844 -182.90066839 388.79271951 -184.8125 390.8125 C-188.34054084 391.37487163 -190.22157825 391.12592202 -193.3828125 389.44921875 C-200.58105928 383.95697847 -207.29781109 378.09577255 -213.8125 371.8125 C-214.36429932 371.28986572 -214.91609863 370.76723145 -215.48461914 370.22875977 C-220.07112057 365.78911833 -223.93625556 360.98480455 -227.75 355.875 C-228.33845703 355.09576172 -228.92691406 354.31652344 -229.53320312 353.51367188 C-230.96452717 351.6168766 -232.39081558 349.71652445 -233.8125 347.8125 C-237.10325996 348.19154208 -237.10325996 348.19154208 -239.8125 349.8125 C-239.96902207 351.36284655 -240.05815413 352.92005554 -240.12011719 354.47705078 C-240.16082336 355.48202606 -240.20152954 356.48700134 -240.24346924 357.52243042 C-240.28171814 358.63135651 -240.31996704 359.74028259 -240.359375 360.8828125 C-240.40100769 362.0406424 -240.44264038 363.19847229 -240.48553467 364.39138794 C-240.91858956 377.45188546 -241.0348998 390.51299169 -241.05273438 403.57958984 C-241.05712312 406.31475119 -241.07108142 409.04959785 -241.09375 411.78466797 C-241.2694006 433.4512164 -239.83507942 454.56114864 -236.625 476 C-235.87889388 481.05056449 -235.31100617 485.71397935 -235.8125 490.8125 C-237.5 492.9375 -237.5 492.9375 -239.8125 493.8125 C-243.71104383 493.3913807 -245.93088048 492.28181489 -248.9375 489.8125 C-249.71609375 489.17957031 -250.4946875 488.54664063 -251.296875 487.89453125 C-252.12703125 487.20746094 -252.9571875 486.52039063 -253.8125 485.8125 C-254.68390625 485.11511719 -255.5553125 484.41773438 -256.453125 483.69921875 C-262.31517424 478.98445629 -267.86232487 474.06945807 -273.3046875 468.87890625 C-276.82757344 465.97609213 -279.36169261 464.72545156 -283.9375 465 C-286.97341617 465.85797631 -287.893378 466.40209113 -289.8125 468.8125 C-290.59196747 476.74520543 -288.66831514 484.06817864 -286.8125 491.75 C-286.57924515 492.72984863 -286.57924515 492.72984863 -286.34127808 493.72949219 C-283.10756846 507.28332863 -279.20093747 520.58656783 -274.8125 533.8125 C-274.5129541 534.73369629 -274.2134082 535.65489258 -273.90478516 536.60400391 C-269.9553548 548.63528016 -264.99847805 560.04925783 -259.5 571.4375 C-259.19141052 572.07740875 -258.88282104 572.7173175 -258.56488037 573.37661743 C-255.27733536 580.47497818 -255.27733536 580.47497818 -251.12036133 587.06005859 C-249.8125 588.8125 -249.8125 588.8125 -249.8125 590.8125 C-253.32077915 589.29170927 -255.76521646 587.2129327 -258.5625 584.625 C-261.52354631 581.90496909 -264.49133897 579.21960156 -267.5625 576.625 C-277.57356184 567.8729358 -286.6042043 558.26071059 -294.8125 547.8125 C-295.7406338 546.69423817 -296.67180038 545.57848878 -297.60546875 544.46484375 C-305.63199015 534.81253153 -312.39635608 524.59294698 -318.8125 513.8125 C-319.25867676 513.06597168 -319.70485352 512.31944336 -320.16455078 511.55029297 C-333.79372887 488.51957657 -343.17536588 463.37020025 -349.125 437.3125 C-349.35533936 436.31911621 -349.58567871 435.32573242 -349.82299805 434.30224609 C-354.06008947 414.66391042 -355.36828922 394.91988889 -355.25 374.875 C-355.24695862 373.77097839 -355.24391724 372.66695679 -355.24078369 371.52947998 C-355.12101391 341.95273073 -354.22908549 306.19348982 -341.8125 278.8125 C-338.0919164 276.33211093 -336.21453429 276.34912797 -331.8125 276.8125 C-328.48073228 279.4991366 -327.18796357 281.79475092 -326.1015625 285.890625 C-325.82957031 286.87877197 -325.55757813 287.86691895 -325.27734375 288.88500977 C-325.00019531 289.93358154 -324.72304688 290.98215332 -324.4375 292.0625 C-320.18523378 307.33666765 -314.73424883 321.5594314 -307.8125 335.8125 C-306.8225 335.8125 -305.8325 335.8125 -304.8125 335.8125 C-303.33300648 332.85351295 -303.5517038 330.090025 -303.41796875 326.7890625 C-303.35203223 325.29700604 -303.28534663 323.80498255 -303.21801758 322.31298828 C-303.16576523 321.12385834 -303.16576523 321.12385834 -303.11245728 319.91070557 C-300.2701766 257.40212732 -288.8562997 195.41711906 -263.8125 137.8125 C-263.45833008 136.98830566 -263.10416016 136.16411133 -262.73925781 135.31494141 C-246.11521717 96.96385858 -246.11521717 96.96385858 -235.8125 91.8125 C-231.91592135 91.29295618 -230.3441619 91.41669328 -227.14875793 93.795578 C-224.14109807 97.67951354 -224.13964006 100.74646721 -224.24487305 105.45825195 C-224.24377785 106.74681847 -224.24377785 106.74681847 -224.24266052 108.06141663 C-224.24613516 110.89185429 -224.28498967 113.72063224 -224.32421875 116.55078125 C-224.33354733 118.51660768 -224.34066323 120.48244575 -224.34565735 122.44828796 C-224.36472352 127.61561325 -224.41382137 132.78223282 -224.46917725 137.94927979 C-224.52037774 143.22455296 -224.54317312 148.49994046 -224.56835938 153.77539062 C-224.62194021 164.12140336 -224.70724869 174.46689293 -224.8125 184.8125 C-223.1625 184.8125 -221.5125 184.8125 -219.8125 184.8125 C-219.37421875 183.92433594 -218.9359375 183.03617188 -218.484375 182.12109375 C-199.58219955 143.97019447 -178.45800157 106.57559455 -147.62890625 76.62890625 C-145.68358115 74.75571986 -145.68358115 74.75571986 -143.75 72.1875 C-141.4538661 69.37288425 -138.88220221 67.16324188 -136.12109375 64.8125 C-133.6210219 62.64661712 -131.22455851 60.38834513 -128.8125 58.125 C-121.88041892 51.81527426 -114.42764186 46.26723908 -106.8125 40.8125 C-105.90806152 40.1628125 -105.90806152 40.1628125 -104.98535156 39.5 C-77.52165883 19.98110677 -46.47342925 7.17871823 -13.9140625 -0.97265625 C-12.88877441 -1.23054932 -11.86348633 -1.48844238 -10.80712891 -1.75415039 C-6.88640976 -2.32151355 -3.37714006 -2.21260901 0 0 Z " fill="#FEAF2E" transform="translate(386.8125,28.1875)"/>
<path d="M0 0 C45.7490037 9.78251912 85.60546002 31.97906367 120.50439453 62.68798828 C121.86786567 63.88408588 123.2438443 65.06588744 124.62109375 66.24609375 C128.86551327 69.9179103 132.64118125 73.72533527 136.26171875 78.01171875 C138.04632172 80.05298372 139.9276747 81.92662875 141.875 83.8125 C146.14287361 88.03964962 149.91598179 92.57515252 153.63964844 97.28466797 C154.60656067 98.50389363 155.57917534 99.71860644 156.55566406 100.93017578 C176.09655293 125.18212055 191.21337729 151.75251406 204.86181641 179.67602539 C205.89697643 181.78964363 206.94421774 183.89662219 208 186 C209.65 186 211.3 186 213 186 C212.99111755 184.90863235 212.98223511 183.81726471 212.9730835 182.69282532 C212.89199771 172.40785603 212.83203457 162.12295158 212.79275131 151.83773518 C212.7718764 146.54997244 212.74356022 141.26246774 212.69824219 135.97485352 C212.65478144 130.87201081 212.63086217 125.76941631 212.62049103 120.66640282 C212.6131001 118.71952596 212.59866734 116.77266269 212.57707977 114.82589149 C212.54804279 112.09887968 212.54404412 109.37289348 212.54589844 106.64575195 C212.53151733 105.84086334 212.51713623 105.03597473 212.50231934 104.20669556 C212.52976649 100.47637145 212.86776133 98.21884714 214.8135376 94.998703 C217 93 217 93 220.4375 92.375 C225.80680866 93.31698398 227.99696485 96.60989378 231.10546875 100.91796875 C273.76355073 167.90636391 289.2662209 250.3232588 291.7097168 328.78271484 C291.72793638 333.02710294 291.72793638 333.02710294 293 337 C293.99 337 294.98 337 296 337 C303.06416212 322.24910716 308.91560077 307.65757952 313.109375 291.84765625 C313.61210938 289.97400391 313.61210938 289.97400391 314.125 288.0625 C314.39570312 286.98097656 314.66640625 285.89945312 314.9453125 284.78515625 C316.14091732 281.62787389 317.35357557 280.07581991 320 278 C323.60010518 277.54998685 325.93658504 277.38726343 329.12109375 279.22216797 C331.41409555 281.39181962 331.84472133 282.82717453 332.5625 285.8828125 C332.80000977 286.87265137 333.03751953 287.86249023 333.28222656 288.88232422 C333.63752441 290.48744873 333.63752441 290.48744873 334 292.125 C334.25491211 293.23504395 334.50982422 294.34508789 334.77246094 295.48876953 C337.39706905 307.23000192 339.45427003 319.06945689 341 331 C341.08720306 331.65526672 341.17440613 332.31053345 341.26425171 332.98565674 C343.06939463 346.86737054 343.36159832 360.63893691 343.3125 374.625 C343.31034485 375.7300589 343.3081897 376.8351178 343.30596924 377.97366333 C343.25630336 393.83559545 342.99920599 409.37641882 340 425 C339.80664062 426.04913574 339.61328125 427.09827148 339.4140625 428.17919922 C329.24689658 481.97260716 303.76347793 528.74977097 266 568 C265.25169922 568.78117188 265.25169922 568.78117188 264.48828125 569.578125 C258.40511397 575.89586171 252.17109829 581.72411192 245.27734375 587.16015625 C243.02422697 588.90278917 243.02422697 588.90278917 241.31640625 590.74609375 C240 592 240 592 238 592 C239.42193043 588.08386374 241.28742997 584.52484115 243.27319336 580.87670898 C257.91261941 553.89037825 283.9889112 501.49008148 278 470 C275.97205765 467.38057447 274.99461395 466.99847565 271.6875 466.0625 C265.03248655 465.94970316 260.87203345 470.8778062 256.25 475.25 C251.75699314 479.44520151 247.17380138 483.43250021 242.3125 487.203125 C240.78635934 488.38897754 239.28510451 489.60766117 237.8125 490.859375 C232.8164755 494.98488008 232.8164755 494.98488008 228.625 495.0625 C226 494 226 494 224 491 C223.37352558 485.44710149 224.01094374 479.84425734 224.95143127 474.3614502 C228.55670062 453.19765287 229.30952294 432.09080565 229.20581055 410.65332031 C229.18745388 406.74016814 229.18530261 402.82725351 229.18554688 398.9140625 C229.34709098 374.38171718 229.34709098 374.38171718 227 350 C224.65466049 349.23043864 224.65466049 349.23043864 222 349 C219.3981407 351.11185397 217.71718678 353.79032038 215.875 356.5625 C212.01397268 362.14314452 207.66089194 367.0784141 203 372 C201.95199219 373.12728516 201.95199219 373.12728516 200.8828125 374.27734375 C184.43094366 391.42224004 184.43094366 391.42224004 176.0625 392.3125 C173 392 173 392 171.35693359 390.38793945 C169.61929867 387.33003963 169.46196818 384.98752794 169.2265625 381.48046875 C169.07743408 379.50699463 169.07743408 379.50699463 168.92529297 377.49365234 C168.85299469 376.44331818 168.85299469 376.44331818 168.77923584 375.37176514 C164.40803407 313.46745263 146.37934527 251.87741787 122 195 C121.52796143 193.88455811 121.52796143 193.88455811 121.04638672 192.74658203 C112.08237856 171.62558128 101.65417488 151.4162151 89.47290039 131.98681641 C88.42670532 130.31111572 88.42670532 130.31111572 87.359375 128.6015625 C86.73514648 127.61494629 86.11091797 126.62833008 85.46777344 125.61181641 C84 123 84 123 83.47753906 120.71240234 C83.31995117 120.14730957 83.16236328 119.5822168 83 119 C81.515 118.505 81.515 118.505 80 118 C78.41758089 115.52578112 76.97645293 113.06803968 75.5625 110.5 C65.48304467 92.80987169 53.10212197 76.34626881 39.25 61.43359375 C37.36053949 59.38995851 35.54658082 57.31195682 33.75 55.1875 C25.89264172 46.15433751 17.16449155 37.69425226 8 30 C6.26554257 28.51554479 4.53425337 27.02743207 2.80273438 25.53955078 C1.0250777 24.01272054 -0.75456486 22.48824984 -2.53515625 20.96484375 C-3.09879883 20.47991455 -3.66244141 19.99498535 -4.24316406 19.49536133 C-5.46923177 18.45177257 -6.70654513 17.42131515 -7.95214844 16.40112305 C-8.58282227 15.87945557 -9.21349609 15.35778809 -9.86328125 14.8203125 C-10.43731689 14.35254395 -11.01135254 13.88477539 -11.6027832 13.40283203 C-13 12 -13 12 -14.125 8.9375 C-13.97467693 5.40490793 -13.15814774 3.77476137 -11 1 C-7.05528443 -1.62981038 -4.4195767 -0.85191087 0 0 Z " fill="#FEAF2E" transform="translate(649,27)"/>
<path d="M0 0 C0.33 0.66 0.66 1.32 1 2 C0.33837891 3.72631836 0.33837891 3.72631836 -0.7734375 5.83984375 C-1.38602417 7.04229736 -1.38602417 7.04229736 -2.01098633 8.26904297 C-2.46111084 9.14963379 -2.91123535 10.03022461 -3.375 10.9375 C-31.29767844 67.713118 -31.31782619 134.80650271 -11.93701172 194.25585938 C-3.68136218 218.43342603 9.00389524 240.2766717 24.69628906 260.31445312 C27.1703204 263.5130884 29.58274039 266.75836901 32 270 C31.51756836 270.8504187 31.51756836 270.8504187 31.02539062 271.71801758 C5.02894503 317.79124739 -7.19665949 368.13870468 0 421 C0.1853833 422.3912207 0.1853833 422.3912207 0.37451172 423.81054688 C4.70315989 455.2286623 15.27951066 484.48914365 31 512 C31.39123047 512.68465332 31.78246094 513.36930664 32.18554688 514.07470703 C42.19119266 531.31821388 54.81604887 546.38241344 68.73168945 560.58984375 C70 562 70 562 71 564 C61.14205756 563.46996476 51.597657 561.79180074 41.9375 559.875 C40.75124023 559.64108047 40.75124023 559.64108047 39.54101562 559.4024353 C-5.59179864 550.46026991 -48.86522273 535.62343056 -90 515 C-90.86882812 514.566875 -91.73765625 514.13375 -92.6328125 513.6875 C-110.45010823 504.75092534 -127.104418 494.06700258 -143.19042969 482.31494141 C-144.80344962 481.1428252 -146.4356636 479.99722733 -148.0703125 478.85546875 C-154.52189518 474.12751786 -157.68497395 469.20996528 -161 462 C-161.65315991 460.63325867 -162.30823189 459.26743005 -162.96484375 457.90234375 C-164.70980622 454.25508614 -166.41656417 450.59140566 -168.10986328 446.91992188 C-168.8413793 445.34212649 -169.58848143 443.77156646 -170.33984375 442.203125 C-181.2770762 419.07658635 -188.50459413 394.04599919 -194.0625 369.125 C-194.26641357 368.22346191 -194.47032715 367.32192383 -194.68041992 366.39306641 C-197.61256823 352.4808742 -197.61256823 352.4808742 -194.375 347.5 C-191.41010751 345.62743632 -189.51607206 345.07032144 -186 345 C-180.96251424 347.04867109 -177.57850699 349.96651901 -173.75 353.6875 C-169.08851798 358.10307968 -164.36259986 362.30689201 -159.27734375 366.23828125 C-157.76314402 367.4096433 -156.27524857 368.61584423 -154.81640625 369.85546875 C-150.74438286 373.31815229 -150.74438286 373.31815229 -145.5625 373.9375 C-143.10021639 373.24058683 -143.10021639 373.24058683 -142 372 C-141.80053201 366.64061006 -142.06291556 361.62833575 -142.95167542 356.34561157 C-146.57075855 334.68955452 -147.30262974 313.25708568 -147.19561768 291.33691406 C-147.18484237 288.56676955 -147.18521051 285.79667396 -147.18557549 283.02651215 C-147.18545531 274.34997059 -147.11474654 265.67587793 -147 257 C-146.97851898 255.07377808 -146.97851898 255.07377808 -146.956604 253.10864258 C-146.90700635 249.4621345 -146.82820027 245.81758657 -146.73828125 242.171875 C-146.72492233 241.08118713 -146.71156342 239.99049927 -146.69779968 238.86676025 C-146.66644424 237.87013367 -146.63508881 236.87350708 -146.6027832 235.84667969 C-146.58302933 234.97839539 -146.56327545 234.11011108 -146.54292297 233.21551514 C-146 231 -146 231 -144.09326172 229.18852234 C-142 228 -142 228 -139.9050293 228.13696289 C-136.64539865 229.61367625 -134.88030697 232.62550172 -132.8125 235.4375 C-131.83737005 236.72083249 -130.85947635 238.00206941 -129.87890625 239.28125 C-129.39437988 239.91417969 -128.90985352 240.54710937 -128.41064453 241.19921875 C-125.16922189 245.33710962 -121.59813939 249.17351714 -118 253 C-117.4534375 253.59941406 -116.906875 254.19882812 -116.34375 254.81640625 C-110.7914773 260.68167471 -101.25248695 270.56229275 -93 271.25 C-92.01 271.1675 -91.02 271.085 -90 271 C-87.57698679 267.36548018 -87.42957263 264.28164392 -87.0703125 260.0546875 C-86.91589376 258.41730617 -86.76134759 256.77993686 -86.60668945 255.14257812 C-86.52859039 254.28349854 -86.45049133 253.42441895 -86.37002563 252.53930664 C-82.88114916 214.6027178 -75.65515352 177.31585076 -64 141 C-63.79417297 140.35520691 -63.58834595 139.71041382 -63.37628174 139.04608154 C-52.42648331 104.76962483 -40.18321658 70.88946077 -22.77734375 39.28125 C-20.9905428 35.98254056 -19.36829683 32.63406436 -17.75 29.25 C-12.69619129 19.01339905 -6.32536831 9.48805247 0 0 Z " fill="#F8302F" transform="translate(292,147)"/>
<path d="M0 0 C0.91789307 -0.00999023 1.83578613 -0.01998047 2.78149414 -0.03027344 C17.51983498 0.15450025 29.71353123 6.26968752 40.10546875 16.48046875 C48.90038616 25.5857599 54.34274226 37.72984648 54.875 50.4375 C54.9265625 51.47519531 54.978125 52.51289063 55.03125 53.58203125 C55.33005221 64.8742649 52.79485382 74.53645195 49.46411133 85.22607422 C42.56330606 107.41404111 37.98348436 129.28735193 35.875 152.4375 C35.78644745 153.35232147 35.6978949 154.26714294 35.60665894 155.20968628 C34.94587677 162.41332311 34.74192152 169.53451371 34.77734375 176.765625 C34.7787587 177.88064392 34.78017365 178.99566284 34.78163147 180.14447021 C34.78716885 183.65884235 34.79970913 187.17314756 34.8125 190.6875 C34.81752311 193.08984282 34.82208459 195.49218665 34.82617188 197.89453125 C34.83711766 203.74220981 34.85379195 209.58985012 34.875 215.4375 C30.15625 215.671875 30.15625 215.671875 27.625 213.5625 C26.70137042 212.52700224 25.78584727 211.48425903 24.875 210.4375 C24.23820312 209.77878906 23.60140625 209.12007812 22.9453125 208.44140625 C17.41153007 202.6023796 12.93246694 196.38321947 8.59326172 189.61987305 C7.42635216 187.84262926 6.15804781 186.13280579 4.875 184.4375 C3.885 184.4375 2.895 184.4375 1.875 184.4375 C-9.02835984 214.13364266 1.33794844 254.51167672 13.84570312 282.21899414 C16.63666768 288.23452898 19.53089031 294.00704378 23.453125 299.3828125 C24.875 301.4375 24.875 301.4375 26.76171875 304.79296875 C32.77625299 315.44647787 41.43631567 324.65716853 49.875 333.4375 C50.37322266 333.95763672 50.87144531 334.47777344 51.38476562 335.01367188 C57.49713257 341.35903884 63.70521927 347.28246142 70.875 352.4375 C72.02754219 353.28358392 73.17986888 354.12996144 74.33203125 354.9765625 C75.57471833 355.88131162 76.81820911 356.78495785 78.0625 357.6875 C78.64499512 358.11240723 79.22749023 358.53731445 79.82763672 358.97509766 C83.36774779 361.50950681 86.91503587 363.58671252 90.875 365.4375 C87.25674104 366.64358632 86.50736226 366.15629018 83.0703125 364.734375 C81.62156738 364.13761963 81.62156738 364.13761963 80.14355469 363.52880859 C79.10618164 363.08617676 78.06880859 362.64354492 77 362.1875 C75.93168945 361.73584473 74.86337891 361.28418945 73.76269531 360.81884766 C58.77480157 354.37108325 44.08853014 347.07272937 30.875 337.4375 C30.25286621 336.98761719 29.63073242 336.53773438 28.98974609 336.07421875 C21.32817323 330.51549922 13.89869671 324.85581592 6.98828125 318.375 C4.84655004 316.36362359 4.84655004 316.36362359 2.296875 314.40234375 C0.19235177 312.69496442 -1.45932008 311.06920742 -3.1875 309 C-5.76375882 305.96845406 -8.43240033 303.06657311 -11.1887207 300.19799805 C-55.15289995 254.05673613 -75.44030141 190.05882535 -74.21826172 127.21972656 C-74.03088557 121.62983487 -73.38200211 116.16543123 -72.47558594 110.64355469 C-72.07348096 108.11331753 -71.72955997 105.57746574 -71.3828125 103.0390625 C-67.23264016 74.11762412 -56.79826794 29.08438198 -32.3828125 9.98828125 C-31.63773437 9.47652344 -30.89265625 8.96476562 -30.125 8.4375 C-29.54492188 8.01855469 -28.96484375 7.59960938 -28.3671875 7.16796875 C-26.75 6.125 -26.75 6.125 -23.125 4.4375 C-21.97451172 3.88255859 -21.97451172 3.88255859 -20.80078125 3.31640625 C-13.91090816 0.47593075 -7.35741261 0.0468115 0 0 Z " fill="#FEAF2E" transform="translate(363.125,399.5625)"/>
<path d="M0 0 C3.44319662 1.40612218 6.48697424 3.32871489 9.625 5.3125 C11.48723484 6.42669719 13.35325662 7.53458491 15.22265625 8.63671875 C16.1780127 9.20052246 17.13336914 9.76432617 18.11767578 10.34521484 C39.467838 22.60266017 63.45287359 31.97112255 87.63085938 36.6730957 C93.71982675 38.02238113 96.69909352 40.06920472 100.47290039 45.05810547 C103.1153766 48.41833821 106.47302572 50.64081988 110 53 C110.93585938 53.639375 111.87171875 54.27875 112.8359375 54.9375 C121.17194596 60.37134255 129.56489206 63.95857536 139 67 C139.71849121 67.23348145 140.43698242 67.46696289 141.17724609 67.70751953 C157.97137188 73.0482371 174.08685076 74.16451519 191.625 74.1875 C192.32594788 74.18867828 193.02689575 74.18985657 193.74908447 74.19107056 C200.90586537 74.18970776 207.91022995 74.04092578 215 73 C216.81112374 72.91800505 218.62452996 72.86934331 220.4375 72.875 C221.70400391 72.87113281 221.70400391 72.87113281 222.99609375 72.8671875 C225 73 225 73 226 74 C226.453125 76.234375 226.453125 76.234375 226 79 C223.94609308 81.00529374 222.05577489 82.58771109 219.75 84.25 C219.11900391 84.72453613 218.48800781 85.19907227 217.83789062 85.68798828 C215.90219723 87.13975832 213.95202833 88.57030341 212 90 C210.86844269 90.84454977 209.73815473 91.69080395 208.609375 92.5390625 C207.58328125 93.30992187 206.5571875 94.08078125 205.5 94.875 C204.53578125 95.59945312 203.5715625 96.32390625 202.578125 97.0703125 C201.03609791 98.22449641 199.48644704 99.36875419 197.921875 100.4921875 C195.33300155 102.43989136 194.1052069 103.43451292 193.5 106.6875 C193.82079493 109.18192915 193.82079493 109.18192915 196 111 C203.69235649 111.26489894 211.31529743 109.13970626 218.6875 107.1875 C220.81119674 106.64062041 222.93489465 106.09374542 225.05859375 105.546875 C226.07937012 105.28068359 227.10014648 105.01449219 228.15185547 104.74023438 C231.84515017 103.78034499 235.54639572 102.85680768 239.25 101.9375 C240.49007813 101.62683594 241.73015625 101.31617188 243.0078125 100.99609375 C245.98018924 100.25262217 248.95461711 99.51777162 251.9296875 98.78515625 C268.19335177 94.81999486 268.19335177 94.81999486 284.1875 89.90625 C288.29065812 88.58412127 291.42542683 88.25414955 295.375 90.125 C297 92 297 92 297.37719727 94.546875 C296.85194031 99.35544095 294.8481699 102.89570018 292.58984375 107.125 C291.67367395 108.90096214 290.75766315 110.67700631 289.84179688 112.453125 C288.38926076 115.23372927 286.9314639 118.01145986 285.46948242 120.78710938 C284.05853279 123.47626377 282.66725156 126.1749256 281.27734375 128.875 C280.83470688 129.70016113 280.39207001 130.52532227 279.9360199 131.37548828 C278.02983077 135.09281473 276.96426016 137.26325678 277.17016602 141.5078125 C277.76490216 143.91406975 277.76490216 143.91406975 279 145 C284.71799688 145.32311469 289.39353777 144.60100419 294.83203125 142.76953125 C295.54928879 142.53723312 296.26654633 142.304935 297.00553894 142.06559753 C298.51406755 141.57429927 300.02076005 141.07733016 301.52563477 140.57495117 C303.79209851 139.81930195 306.06415985 139.08306297 308.33789062 138.34960938 C316.47639102 135.69474133 324.28397081 132.73669338 332 129 C333.66471336 128.24567434 335.33117759 127.49519095 337 126.75 C342.31113938 124.33304672 347.59565819 121.86045644 352.875 119.375 C353.69613281 118.99053711 354.51726562 118.60607422 355.36328125 118.20996094 C359.37904681 116.3125282 363.21762584 114.33565962 367 112 C368.50378213 111.15139703 370.0106829 110.308312 371.51953125 109.46875 C381.04801069 104.1353292 390.32812136 98.68176429 399.20043945 92.30273438 C403.81631655 89 403.81631655 89 406 89 C406 88.34 406 87.68 406 87 C407.828125 85.5625 407.828125 85.5625 410.25 84 C411.03890625 83.484375 411.8278125 82.96875 412.640625 82.4375 C414.72070886 81.17016414 416.80311715 80.0480542 419 79 C417.67089891 82.70753569 416.03770057 85.56531409 413.65625 88.6953125 C412.99165771 89.57098877 412.32706543 90.44666504 411.64233398 91.34887695 C410.58187866 92.72305786 410.58187866 92.72305786 409.5 94.125 C408.77820557 95.06625732 408.05641113 96.00751465 407.31274414 96.97729492 C402.16293695 103.63548611 396.79232271 109.89252277 391 116 C389.86852253 117.30692004 388.74317189 118.61917801 387.625 119.9375 C380.33628578 128.28701301 372.43886415 135.91952727 363.75390625 142.80078125 C360.91525173 145.06767841 358.18452915 147.43577189 355.4375 149.8125 C347.74870612 156.21982823 339.44373125 161.64512722 331 167 C330.32904297 167.42780762 329.65808594 167.85561523 328.96679688 168.29638672 C293.67061641 190.56407214 233.87641345 217.58880837 191 209 C188.47605633 206.74761989 188.0491578 205.34410459 187.5703125 201.9921875 C188.10205801 198.28930514 188.99947523 197.44332966 191.875 195.125 C192.70128906 194.44308594 193.52757812 193.76117187 194.37890625 193.05859375 C195.24386719 192.37925781 196.10882812 191.69992187 197 191 C198.60443049 189.72949976 200.20859628 188.45866518 201.8125 187.1875 C203.05386719 186.20523438 203.05386719 186.20523438 204.3203125 185.203125 C209.40670926 181.02130609 214.23722759 176.54551506 219 172 C219.55397461 171.47591553 220.10794922 170.95183105 220.67871094 170.41186523 C225.22538222 166.00498449 229.08196457 161.24927066 232.875 156.1875 C233.74511719 155.0437793 233.74511719 155.0437793 234.6328125 153.87695312 C237.5668895 150.09721793 237.5668895 150.09721793 240 146 C238.88625 146.433125 237.7725 146.86625 236.625 147.3125 C190.73859297 162.32471958 121.58084897 158.91000329 78 138 C76.515 137.01 76.515 137.01 75 136 C74.8125 132.375 74.8125 132.375 75 129 C80.77192785 125.45351616 86.88956947 124.84349714 93.5 123.8125 C108.96934361 121.2483441 123.92525982 117.27542578 139 113 C138.32235596 112.93530518 137.64471191 112.87061035 136.9465332 112.80395508 C84.53114109 107.65565967 39.08398085 86.09583595 5 45 C-16.17649224 18.17759656 -16.17649224 18.17759656 -16 9 C-12.97127662 0.71086232 -8.38753682 -1.22124881 0 0 Z " fill="#FEAF2E" transform="translate(369,779)"/>
<path d="M0 0 C4.81027215 3.38500633 7.88271257 7.5172043 11.25 12.25 C11.81920166 13.04704346 12.38840332 13.84408691 12.97485352 14.6652832 C25.82464572 32.94114693 37.1339952 54.39272133 37.5 77.1875 C37.52779541 78.26620361 37.52779541 78.26620361 37.55615234 79.36669922 C37.51674659 82.61265152 37.14750463 84.75428437 35.46875 87.55078125 C32.62119481 89.22236824 30.7072718 89.49515497 27.45703125 88.89892578 C21.76007604 86.81464626 16.90594608 82.93785692 12 79.4375 C10.83301049 78.62164438 9.66504882 77.80717749 8.49609375 76.99414062 C5.65265913 75.01200399 2.82289722 73.01131427 0 71 C0.55463091 67.71143086 1.1777244 65.67519335 2.8125 62.6875 C9.90564478 48.9429081 10.77035199 32.81346417 7 18 C5.852611 14.86659881 4.5924019 11.82952371 3.21875 8.7890625 C1.95831711 5.9046103 0.9550655 2.99784449 0 0 Z " fill="#FDAF2F" transform="translate(543,290)"/>
<path d="M0 0 C4.45146251 2.18526342 7.18885145 4.9394521 10 9 C11.60463781 13.81391342 12.00499945 17.77823336 9.90625 22.41796875 C6.65562586 27.71752354 4.03882677 30.41083506 -2 32 C-7.27311717 32.55506497 -10.51906338 31.82493831 -15 29 C-18.73293077 25.68183932 -20.75208218 23.58891232 -21.23828125 18.51171875 C-21.39682895 12.47856139 -21.29537816 8.63448696 -17 4 C-11.88842963 -0.73755303 -6.65085064 -0.98127305 0 0 Z " fill="#231D18" transform="translate(504,312)"/>
<path d="M0 0 C0.66 0 1.32 0 2 0 C3.29190503 1.88581668 4.48392603 3.84020205 5.6328125 5.81640625 C5.98621201 6.42030182 6.33961151 7.02419739 6.70372009 7.64639282 C7.85197297 9.6139942 8.98888577 11.58786855 10.125 13.5625 C10.90132665 14.90096268 11.67793752 16.23926056 12.45483398 17.57739258 C27 42.69771871 27 42.69771871 27 46 C25.515 46.495 25.515 46.495 24 47 C23.34 46.67 22.68 46.34 22 46 C21.67 47.65 21.34 49.3 21 51 C19.51572215 48.18521178 18.41021644 45.41574473 17.44140625 42.38671875 C12.92550112 28.64637027 7.40022548 15.76915731 0.8828125 2.85986328 C0 1 0 1 0 0 Z " fill="#F2372D" transform="translate(730,146)"/>
<path d="M0 0 C0.33 0 0.66 0 1 0 C1.02505615 1.20648193 1.0501123 2.41296387 1.07592773 3.65600586 C1.16982523 8.11575661 1.27008833 12.57534513 1.37231445 17.03491211 C1.41573041 18.96814185 1.45740042 20.90141159 1.49731445 22.8347168 C1.55485631 25.60738202 1.6185962 28.37984457 1.68359375 31.15234375 C1.70030624 32.02213364 1.71701874 32.89192352 1.73423767 33.78807068 C1.45026213 37.71115966 1.45026213 37.71115966 3 41 C3.30416062 44.04160622 3.56717081 47.07859843 3.8125 50.125 C4.50658572 58.02570278 5.85455923 65.26693241 8.1953125 72.8359375 C9.00645885 76.02539646 9.14842865 78.72467442 9 82 C6.60790307 79.60790307 6.45496254 78.32335589 5.78125 75.046875 C5.57209961 74.04188965 5.36294922 73.0369043 5.14746094 72.00146484 C4.93379883 70.92848145 4.72013672 69.85549805 4.5 68.75 C4.16790527 67.111521 4.16790527 67.111521 3.82910156 65.43994141 C0.4965027 48.74971187 -1.07185888 32.38775062 -1.125 15.375 C-1.12967285 14.31877441 -1.1343457 13.26254883 -1.13916016 12.17431641 C-1.13706543 11.17577637 -1.1349707 10.17723633 -1.1328125 9.1484375 C-1.13168457 8.25302246 -1.13055664 7.35760742 -1.12939453 6.43505859 C-1.00801092 4.1507565 -0.64138698 2.1891232 0 0 Z " fill="#FE9339" transform="translate(290,520)"/>
<path d="M0 0 C0.33 0 0.66 0 1 0 C1.32044942 5.34082361 0.53420127 8.33706965 -2 13 C-2.69907414 15.73572585 -2.69907414 15.73572585 -3 18 C-3.66 18 -4.32 18 -5 18 C-5.10441406 18.69351563 -5.20882812 19.38703125 -5.31640625 20.1015625 C-6.11124026 23.47165872 -7.42522698 26.26171422 -8.9375 29.375 C-11.41104148 34.55019237 -11.41104148 34.55019237 -13.125 40 C-14.11991454 43.41113558 -15.62778931 45.39056824 -18 48 C-17.34 48.99 -16.68 49.98 -16 51 C-17.1196986 52.00593243 -18.2459412 53.0045849 -19.375 54 C-20.00148438 54.556875 -20.62796875 55.11375 -21.2734375 55.6875 C-23 57 -23 57 -25 57 C-23.57744809 53.0821521 -21.71017159 49.52186881 -19.72509766 45.87133789 C-11.77914682 31.23746977 -4.73640934 15.99780218 0 0 Z " fill="#FD9838" transform="translate(912,562)"/>
<path d="M0 0 C0 4.03381023 -1.59573562 5.49433637 -4 8.6875 C-5.11375 10.17830078 -5.11375 10.17830078 -6.25 11.69921875 C-7.11625 12.83810547 -7.11625 12.83810547 -8 14 C-9.32 13.34 -10.64 12.68 -12 12 C-12.86625 12.5775 -13.7325 13.155 -14.625 13.75 C-15.17027344 14.10964844 -15.71554687 14.46929688 -16.27734375 14.83984375 C-17.94010624 15.95966338 -19.56486151 17.13529168 -21.1875 18.3125 C-22.115625 18.869375 -23.04375 19.42625 -24 20 C-24.99 19.67 -25.98 19.34 -27 19 C-24.87885041 17.49428254 -22.75346385 15.99531321 -20.625 14.5 C-19.72007812 13.85611328 -19.72007812 13.85611328 -18.796875 13.19921875 C-14.2265625 10 -14.2265625 10 -12 10 C-12 9.34 -12 8.68 -12 8 C-10.13671875 6.5625 -10.13671875 6.5625 -7.6875 5 C-6.48673828 4.2265625 -6.48673828 4.2265625 -5.26171875 3.4375 C-4.51535156 2.963125 -3.76898437 2.48875 -3 2 C-2.01 1.34 -1.02 0.68 0 0 Z " fill="#FDA432" transform="translate(787,858)"/>
<path d="M0 0 C2.52718719 2.52718719 2.36186695 3.68675213 2.6328125 7.19921875 C2.71660156 8.24400391 2.80039062 9.28878906 2.88671875 10.36523438 C2.96535156 11.46158203 3.04398438 12.55792969 3.125 13.6875 C3.21136719 14.76451172 3.29773438 15.84152344 3.38671875 16.95117188 C3.80110632 22.31518876 4.10774729 27.62033198 4 33 C6.64 33.33 9.28 33.66 12 34 C12 33.34 12 32.68 12 32 C12.99 32 13.98 32 15 32 C15.33 31.01 15.66 30.02 16 29 C16.99 28.67 17.98 28.34 19 28 C19.33 27.34 19.66 26.68 20 26 C20.99 26.33 21.98 26.66 23 27 C21.37680325 28.31472947 19.751385 29.62671662 18.125 30.9375 C16.76761719 32.03384766 16.76761719 32.03384766 15.3828125 33.15234375 C11.75263538 35.96721879 9.61081292 36.47049111 5 36 C2.03858332 32.99728779 1.55586245 30.51632619 1.26953125 26.38671875 C1.18896484 25.30326172 1.10839844 24.21980469 1.02539062 23.10351562 C0.95513672 21.97623047 0.88488281 20.84894531 0.8125 19.6875 C0.73064453 18.57181641 0.64878906 17.45613281 0.56445312 16.30664062 C0.18030195 10.8607328 -0.10240702 5.45908178 0 0 Z " fill="#FE9C3E" transform="translate(817,383)"/>
<path d="M0 0 C0.33 0.66 0.66 1.32 1 2 C0.22729492 4.10717773 0.22729492 4.10717773 -1.01953125 6.68359375 C-1.46490234 7.61107422 -1.91027344 8.53855469 -2.36914062 9.49414062 C-2.84544922 10.46544922 -3.32175781 11.43675781 -3.8125 12.4375 C-4.27720703 13.40494141 -4.74191406 14.37238281 -5.22070312 15.36914062 C-7.00592563 19.05996649 -8.72282996 22.58424493 -11 26 C-11 25.01 -11 24.02 -11 23 C-11.66 23 -12.32 23 -13 23 C-13.99 25.475 -13.99 25.475 -15 28 C-15.33 27.34 -15.66 26.68 -16 26 C-15.07543945 24.03222656 -15.07543945 24.03222656 -13.61328125 21.640625 C-12.8234082 20.33738281 -12.8234082 20.33738281 -12.01757812 19.0078125 C-11.45490234 18.09773438 -10.89222656 17.18765625 -10.3125 16.25 C-9.76916016 15.35539063 -9.22582031 14.46078125 -8.66601562 13.5390625 C-5.87238786 8.95845881 -3.01834843 4.43572373 0 0 Z " fill="#EA3F26" transform="translate(292,147)"/>
<path d="M0 0 C0.66 0 1.32 0 2 0 C3.42041016 1.97192383 3.42041016 1.97192383 5.0390625 4.70703125 C5.61914062 5.68607422 6.19921875 6.66511719 6.796875 7.67382812 C7.40015625 8.70958984 8.0034375 9.74535156 8.625 10.8125 C9.23601563 11.83666016 9.84703125 12.86082031 10.4765625 13.91601562 C15 21.61494664 15 21.61494664 15 25 C14.34 25 13.68 25 13 25 C12.67 25.66 12.34 26.32 12 27 C11.55269531 25.97261719 11.10539063 24.94523437 10.64453125 23.88671875 C7.15969973 15.89488998 3.64203428 7.92184415 0 0 Z " fill="#E73F25" transform="translate(730,146)"/>
<path d="M0 0 C1.24791607 4.08180512 0.4505219 5.97152052 -1.3125 9.875 C-3.86920237 15.60377151 -5.83865012 21.3663686 -7.625 27.375 C-7.88539063 28.24898438 -8.14578125 29.12296875 -8.4140625 30.0234375 C-8.60742188 30.67570312 -8.80078125 31.32796875 -9 32 C-9.66 32 -10.32 32 -11 32 C-11 33.65 -11 35.3 -11 37 C-11.99 37.495 -11.99 37.495 -13 38 C-12.43897919 32.84035268 -11.21163907 28.36073159 -9.27734375 23.53515625 C-9.01240616 22.85698349 -8.74746857 22.17881073 -8.47450256 21.48008728 C-7.63584449 19.33805889 -6.78688037 17.20029613 -5.9375 15.0625 C-5.36324306 13.60118212 -4.78966864 12.13959583 -4.21679688 10.67773438 C-2.8190666 7.11533901 -1.41208555 3.55672819 0 0 Z " fill="#EA4520" transform="translate(248,232)"/>
<path d="M0 0 C0.99 0.33 1.98 0.66 3 1 C3.02685095 3.47923801 3.04676547 5.9581884 3.0625 8.4375 C3.07087891 9.14455078 3.07925781 9.85160156 3.08789062 10.58007812 C3.09653588 12.38693559 3.05220011 14.19387603 3 16 C2.67 16.33 2.34 16.66 2 17 C1.835 18.155 1.67 19.31 1.5 20.5 C1 24 1 24 0 25 C-0.56274765 27.68544346 -1.08061023 30.36253387 -1.5625 33.0625 C-1.70107422 33.82111328 -1.83964844 34.57972656 -1.98242188 35.36132812 C-2.32511827 37.24024975 -2.6630073 39.12004701 -3 41 C-3.66 41 -4.32 41 -5 41 C-4.17476528 35.46224072 -3.24877855 29.96556298 -1.9765625 24.51171875 C-1.79577148 23.73489746 -1.61498047 22.95807617 -1.42871094 22.15771484 C-1.06830019 20.63121325 -0.69957965 19.10664192 -0.32128906 17.58447266 C1.78606253 8.67643826 1.78606253 8.67643826 0 0 Z " fill="#FE9D3D" transform="translate(926,495)"/>
<path d="M0 0 C0.33 0 0.66 0 1 0 C1.31418361 3.39327262 1.5685962 6.78851035 1.8125 10.1875 C1.90208984 11.14720703 1.99167969 12.10691406 2.08398438 13.09570312 C2.55258045 20.22329601 2.55258045 20.22329601 -0.234375 24.140625 C-4.38509952 26.9312251 -6.08260044 26.70248565 -11 26 C-13.5 24 -13.5 24 -15 22 C-14.29875 22.33 -13.5975 22.66 -12.875 23 C-9.67262761 24.11386866 -7.36585848 24.37398428 -4 24 C-1.92583333 20.88874999 -1.67255906 19.7123032 -1.3671875 16.11328125 C-1.28339844 15.17548828 -1.19960937 14.23769531 -1.11328125 13.27148438 C-0.99533203 11.80678711 -0.99533203 11.80678711 -0.875 10.3125 C-0.78863281 9.32443359 -0.70226562 8.33636719 -0.61328125 7.31835938 C-0.40120277 4.87945685 -0.19708799 2.44015212 0 0 Z " fill="#EB4220" transform="translate(206,394)"/>
<path d="M0 0 C2.64 0.33 5.28 0.66 8 1 C5.6227567 3.62747944 3.02316819 5.18609908 0 7 C-0.556875 7.556875 -1.11375 8.11375 -1.6875 8.6875 C-2.3371875 9.3371875 -2.3371875 9.3371875 -3 10 C-3.66 10 -4.32 10 -5 10 C-5.33 10.99 -5.66 11.98 -6 13 C-6.66 12.67 -7.32 12.34 -8 12 C-5.36 8.04 -2.72 4.08 0 0 Z " fill="#F76F20" transform="translate(332,403)"/>
<path d="M0 0 C0.66 0 1.32 0 2 0 C3.21145887 2.42291773 4.42272109 4.8459301 5.6328125 7.26953125 C6.45667471 8.91490178 7.28379315 10.55865575 8.1171875 12.19921875 C9.09365075 14.12565205 10.05350508 16.0586785 11 18 C11.31324219 18.64195312 11.62648438 19.28390625 11.94921875 19.9453125 C14.11990578 24.64028265 14.11990578 24.64028265 13 28 C12.48050781 26.96101563 11.96101562 25.92203125 11.42578125 24.8515625 C11.08998047 24.18012207 10.75417969 23.50868164 10.40820312 22.81689453 C9.67591171 21.35198538 8.94414337 19.88681463 8.21289062 18.42138672 C6.60555121 15.20171173 4.9927646 11.98583856 3.35546875 8.78125 C2.68451172 7.46640625 2.68451172 7.46640625 2 6.125 C1.608125 5.36445313 1.21625 4.60390625 0.8125 3.8203125 C0 2 0 2 0 0 Z " fill="#FE9D3D" transform="translate(755,186)"/>
<path d="M0 0 C1.70078151 3.17182988 2.84829897 6.36409371 3.9453125 9.7890625 C4.29980469 10.89507813 4.65429688 12.00109375 5.01953125 13.140625 C5.38433594 14.29046875 5.74914062 15.4403125 6.125 16.625 C6.68380859 18.36136719 6.68380859 18.36136719 7.25390625 20.1328125 C10 28.74327495 10 28.74327495 10 31 C9.34 31 8.68 31 8 31 C6.23825409 27.82432068 5.3723698 24.78231348 4.5625 21.25 C3.69256769 17.59717197 2.75115356 14.15519797 1.3125 10.6875 C-0.1131123 6.6822083 -0.26096778 4.17548451 0 0 Z " fill="#FE983C" transform="translate(103,536)"/>
<path d="M0 0 C7.60913098 1.2794114 14.73225897 3.42756933 22 6 C18.24649329 8.11236308 16.21187864 8.09875095 12 7 C11.34 6.34 10.68 5.68 10 5 C8.68 5 7.36 5 6 5 C5.67 4.34 5.34 3.68 5 3 C3.35636866 2.27840576 1.68949614 1.60648579 0 1 C0 0.67 0 0.34 0 0 Z " fill="#F29D35" transform="translate(662,31)"/>
<path d="M0 0 C0.91597703 3.25755971 0.97856888 4.82017466 -0.25 8 C-1.99683852 12.78585897 -3.14359948 17.62559769 -4.25390625 22.59375 C-4.62322266 23.78484375 -4.62322266 23.78484375 -5 25 C-5.66 25.33 -6.32 25.66 -7 26 C-6.43737174 19.78972353 -4.99833221 14.37169827 -2.9375 8.5 C-2.65583984 7.67757813 -2.37417969 6.85515625 -2.08398438 6.0078125 C-1.39622757 4.00282657 -0.69908924 2.00106277 0 0 Z " fill="#EB421F" transform="translate(234,270)"/>
<path d="M0 0 C1.17747733 3.62163482 1.00572441 6.84880295 0.75 10.625 C0.68296875 11.77226562 0.6159375 12.91953125 0.546875 14.1015625 C0.27617188 15.53628906 0.27617188 15.53628906 0 17 C-0.99 17.66 -1.98 18.32 -3 19 C-3.66 19.99 -4.32 20.98 -5 22 C-4.38955672 14.36945905 -2.20378179 7.29810526 0 0 Z " fill="#F29A31" transform="translate(104,219)"/>
<path d="M0 0 C6.93 3.96 6.93 3.96 14 8 C9.82356045 9.39214652 7.16562207 7.70664266 3.3125 6.0625 C2.61060547 5.77181641 1.90871094 5.48113281 1.18554688 5.18164062 C-0.54650775 4.46289687 -2.27373781 3.73254669 -4 3 C-2.68 2.67 -1.36 2.34 0 2 C0 1.34 0 0.68 0 0 Z " fill="#F79B33" transform="translate(440,757)"/>
<path d="M0 0 C1.485 0.99 1.485 0.99 3 2 C3.2487793 4.43017578 3.2487793 4.43017578 3.07421875 7.4453125 C3.01943359 8.52167969 2.96464844 9.59804688 2.90820312 10.70703125 C2.83537109 11.83496094 2.76253906 12.96289062 2.6875 14.125 C2.62626953 15.26066406 2.56503906 16.39632813 2.50195312 17.56640625 C2.3483421 20.37866961 2.18044528 23.18935144 2 26 C1.34 26 0.68 26 0 26 C0 17.42 0 8.84 0 0 Z " fill="#F5701A" transform="translate(417,442)"/>
<path d="M0 0 C1.3921875 1.2065625 1.3921875 1.2065625 2.8125 2.4375 C7.79948412 6.71645551 12.90348535 10.85274576 18 15 C17.01 15.495 17.01 15.495 16 16 C13.375 15.0625 13.375 15.0625 11 14 C11 13.01 11 12.02 11 11 C10.12601563 10.61328125 10.12601563 10.61328125 9.234375 10.21875 C6.8197097 8.90165983 5.18259823 7.44911616 3.25 5.5 C2.63640625 4.8915625 2.0228125 4.283125 1.390625 3.65625 C0 2 0 2 0 0 Z " fill="#EE4223" transform="translate(173,400)"/>
<path d="M0 0 C0.66 0.33 1.32 0.66 2 1 C1.00795408 2.33926199 0.00573778 3.67098936 -1 5 C-1.680625 5.9075 -2.36125 6.815 -3.0625 7.75 C-3.701875 8.4925 -4.34125 9.235 -5 10 C-5.66 10 -6.32 10 -7 10 C-7.226875 10.61875 -7.45375 11.2375 -7.6875 11.875 C-9.37929835 14.61410209 -10.99244161 15.05024472 -14 16 C-9.40525596 10.60117576 -4.72323727 5.28666913 0 0 Z " fill="#F59A2F" transform="translate(245,98)"/>
<path d="M0 0 C7 9.1 7 9.1 7 12 C4.00779732 10.63629701 1.70973471 9.05091917 -0.75 6.875 C-1.36359375 6.33617187 -1.9771875 5.79734375 -2.609375 5.2421875 C-3.06828125 4.83226562 -3.5271875 4.42234375 -4 4 C-3.01 4 -2.02 4 -1 4 C-0.67 2.68 -0.34 1.36 0 0 Z " fill="#F89233" transform="translate(130,607)"/>
<path d="M0 0 C1.051875 0.185625 2.10375 0.37125 3.1875 0.5625 C6.66882133 0.96199589 8.66040482 0.68504517 12 0 C15.3125 0.4375 15.3125 0.4375 18 1 C15.30518742 3.69481258 13.45600057 3.96558486 9.6875 4.25 C5.72415901 3.98129892 3.39784469 2.98898226 0 1 C0 0.67 0 0.34 0 0 Z " fill="#3A1A0D" transform="translate(489,340)"/>
<path d="M0 0 C0.33 0.66 0.66 1.32 1 2 C0.1646875 1.87818359 0.1646875 1.87818359 -0.6875 1.75390625 C-4.47816988 1.44015148 -7.01546735 1.32989925 -10.23828125 3.5234375 C-11.5869146 4.76793908 -12.90241699 6.04967801 -14.17578125 7.37109375 C-16.14393205 9.12852177 -17.42562041 9.59651004 -20 10 C-8.61244019 -1.72248804 -8.61244019 -1.72248804 0 0 Z " fill="#EC4820" transform="translate(924,493)"/>
<path d="M0 0 C1.32 0.33 2.64 0.66 4 1 C0.37 4.63 -3.26 8.26 -7 12 C-7.33 10.68 -7.66 9.36 -8 8 C-7.01 8 -6.02 8 -5 8 C-4.67 6.68 -4.34 5.36 -4 4 C-3.01 4 -2.02 4 -1 4 C-0.67 2.68 -0.34 1.36 0 0 Z " fill="#F19E32" transform="translate(353,65)"/>
<path d="M0 0 C-13.24912034 6.17663617 -13.24912034 6.17663617 -17 7 C-19.16015625 6.03515625 -19.16015625 6.03515625 -21 5 C-18.06746654 3.96448955 -15.12833062 2.94918162 -12.1875 1.9375 C-11.35412109 1.64294922 -10.52074219 1.34839844 -9.66210938 1.04492188 C-8.45844727 0.6340332 -8.45844727 0.6340332 -7.23046875 0.21484375 C-6.49207764 -0.04176025 -5.75368652 -0.29836426 -4.99291992 -0.56274414 C-3 -1 -3 -1 0 0 Z " fill="#F35E2F" transform="translate(598,485)"/>
<path d="M0 0 C-5.58368652 3.72245768 -12.28406188 5.53020564 -19 5 C-16.07540663 2.53469612 -13.81790145 1.48951382 -10.0625 0.8125 C-8.81146484 0.57466797 -8.81146484 0.57466797 -7.53515625 0.33203125 C-4.99184871 -0.00106758 -2.56182553 -0.05957734 0 0 Z " fill="#F7721A" transform="translate(645,871)"/>
<path d="M0 0 C2.35953094 2.35953094 2.49141413 3.77895617 3 7 C3.66 7 4.32 7 5 7 C5.66 11.29 6.32 15.58 7 20 C4.33206665 17.33206665 3.63659192 14.67368839 2.375 11.125 C1.92898437 9.89007812 1.48296875 8.65515625 1.0234375 7.3828125 C0 4 0 4 0 0 Z " fill="#EB421F" transform="translate(110,556)"/>
<path d="M0 0 C0.7425 0.2475 1.485 0.495 2.25 0.75 C1.693125 0.95625 1.13625 1.1625 0.5625 1.375 C-1.72109326 2.73281221 -2.7491561 3.82942786 -4.375 5.875 C-5.15875 6.82375 -5.9425 7.7725 -6.75 8.75 C-7.41 8.75 -8.07 8.75 -8.75 8.75 C-7.21419612 4.14258836 -5.47554607 -0.49777692 0 0 Z " fill="#ED4622" transform="translate(873.75,375.25)"/>
<path d="M0 0 C3 1 3 1 4.5703125 3.58203125 C5.33988281 5.18111328 5.33988281 5.18111328 6.125 6.8125 C6.64320313 7.87082031 7.16140625 8.92914063 7.6953125 10.01953125 C8.73132822 12.38623781 9.49976919 14.48054482 10 17 C7.04185281 14.38772848 5.28123892 11.33429693 3.3125 7.9375 C2.37857422 6.34228516 2.37857422 6.34228516 1.42578125 4.71484375 C0 2 0 2 0 0 Z " fill="#FE9A3C" transform="translate(741,161)"/>
<path d="M0 0 C0.33 0.66 0.66 1.32 1 2 C-1.35264864 6.99937836 -5.32444324 10.94178253 -9 15 C-9.66 14.67 -10.32 14.34 -11 14 C-7.37 9.38 -3.74 4.76 0 0 Z " fill="#F4A431" transform="translate(606,930)"/>
<path d="M0 0 C0.66 0 1.32 0 2 0 C0.62712658 3.69876091 -1.06355453 6.9514476 -3.125 10.3125 C-3.66382813 11.19550781 -4.20265625 12.07851562 -4.7578125 12.98828125 C-5.37269531 13.98408203 -5.37269531 13.98408203 -6 15 C-6.5534764 12.92446352 -7 11.15634036 -7 9 C-6.01 8.67 -5.02 8.34 -4 8 C-3.6278958 6.67696283 -3.29369827 5.34262065 -3 4 C-2.34 3.67 -1.68 3.34 -1 3 C-0.67 2.01 -0.34 1.02 0 0 Z " fill="#FE9B3A" transform="translate(287,151)"/>
<path d="M0 0 C-0.804375 0.61875 -1.60875 1.2375 -2.4375 1.875 C-5.03874519 3.74164041 -5.03874519 3.74164041 -6 6 C-6.66 6 -7.32 6 -8 6 C-8.33 6.99 -8.66 7.98 -9 9 C-9.1875 5.625 -9.1875 5.625 -9 2 C-5.5647952 -0.29013653 -4.014669 -0.17842973 0 0 Z " fill="#F4A838" transform="translate(453,906)"/>
<path d="M0 0 C2.48262432 2.48262432 3.07286975 4.61775287 4.1875 7.9375 C4.55230469 8.99839844 4.91710937 10.05929687 5.29296875 11.15234375 C6 14 6 14 5 17 C4.566875 16.0409375 4.566875 16.0409375 4.125 15.0625 C3.17176549 12.84793921 3.17176549 12.84793921 1 12 C0.5859375 9.27734375 0.5859375 9.27734375 0.375 5.9375 C0.30023438 4.83277344 0.22546875 3.72804688 0.1484375 2.58984375 C0.09945313 1.73519531 0.05046875 0.88054688 0 0 Z " fill="#EB4320" transform="translate(299,607)"/>
<path d="M0 0 C0.66 0 1.32 0 2 0 C1.68839539 2.20845985 1.37567654 4.41676251 1.0625 6.625 C0.88847656 7.85476563 0.71445313 9.08453125 0.53515625 10.3515625 C0.06225699 13.57556184 -0.45151002 16.78812176 -1 20 C-1.33 20 -1.66 20 -2 20 C-2.02687279 18.18757948 -2.04633715 16.37504767 -2.0625 14.5625 C-2.07410156 13.55316406 -2.08570313 12.54382813 -2.09765625 11.50390625 C-2 9 -2 9 -1 8 C-0.76924918 6.65252916 -0.58846937 5.29622435 -0.4375 3.9375 C-0.293125 2.638125 -0.14875 1.33875 0 0 Z " fill="#FE9F3C" transform="translate(211,348)"/>
<path d="M0 0 C0.33 0 0.66 0 1 0 C0.51679152 6.2054142 -0.33318124 11.99945246 -2 18 C-2.33 18 -2.66 18 -3 18 C-3.02689216 16.52093108 -3.04634621 15.04172517 -3.0625 13.5625 C-3.07410156 12.73878906 -3.08570313 11.91507812 -3.09765625 11.06640625 C-3 9 -3 9 -2 8 C-1.835 6.845 -1.67 5.69 -1.5 4.5 C-1 1 -1 1 0 0 Z " fill="#FE9F3B" transform="translate(216,328)"/>
<path d="M0 0 C2.4375 1.5 2.4375 1.5 4 3 C3.67 3.66 3.34 4.32 3 5 C2.46375 4.67 1.9275 4.34 1.375 4 C-2.59671095 2.32770065 -5.97077453 2.65692484 -10 4 C-10 3.34 -10 2.68 -10 2 C-6.28986601 -0.47342266 -4.38939738 -0.38503486 0 0 Z " fill="#F3962F" transform="translate(976,305)"/>
<path d="M0 0 C-1.98 0.33 -3.96 0.66 -6 1 C-6 1.66 -6 2.32 -6 3 C-9.67410785 4.17571451 -13.16929183 4.07366746 -17 4 C-14.23719462 2.15812975 -12.19292174 1.27751723 -9.0625 0.3125 C-7.78052734 -0.09548828 -7.78052734 -0.09548828 -6.47265625 -0.51171875 C-3.89489426 -1.02075548 -2.45550663 -0.84888744 0 0 Z " fill="#EE9A36" transform="translate(366,31)"/>
<path d="M0 0 C2.7839183 1.39195915 2.97898997 3.15575779 4 6 C4.66 5.67 5.32 5.34 6 5 C6.33 8.3 6.66 11.6 7 15 C4.66302971 12.66302971 3.72905946 10.50902101 2.375 7.5 C1.92898438 6.5203125 1.48296875 5.540625 1.0234375 4.53125 C0 2 0 2 0 0 Z " fill="#F9721C" transform="translate(374,675)"/>
<path d="M0 0 C1.125 1.75 1.125 1.75 2 4 C1.1875 5.875 1.1875 5.875 0 8 C-0.38290462 9.99110401 -0.72604615 11.99100513 -1 14 C-1.66 14 -2.32 14 -3 14 C-2.48594831 9.03083364 -1.76615118 4.70973649 0 0 Z " fill="#EC3E21" transform="translate(226,296)"/>
<path d="M0 0 C0.99 0 1.98 0 3 0 C2.58578031 4.83256305 0.53586014 6.82679218 -3 10 C-2.01 6.7 -1.02 3.4 0 0 Z " fill="#F89F32" transform="translate(116,183)"/>
<path d="M0 0 C3 1 3 1 5 4 C5.99 4 6.98 4 8 4 C7.7215625 4.86625 7.7215625 4.86625 7.4375 5.75 C6.95976454 8.20692525 7.24270636 9.64397534 8 12 C5.45868642 9.69716746 3.92889705 7.32686207 2.3125 4.3125 C1.87550781 3.50425781 1.43851563 2.69601563 0.98828125 1.86328125 C0.66214844 1.24839844 0.33601562 0.63351563 0 0 Z " fill="#FEA13B" transform="translate(733,149)"/>
<path d="M0 0 C1.32 0 2.64 0 4 0 C2.7580393 3.43927579 1.44259716 6.25207819 -1 9 C-1.66 9 -2.32 9 -3 9 C-2.01 6.03 -1.02 3.06 0 0 Z " fill="#F59E38" transform="translate(308,116)"/>
<path d="M0 0 C4.69159716 3.38772897 9.0299782 6.78185183 13 11 C10.03786895 9.60879688 7.44576515 8.00410076 4.8125 6.0625 C4.11769531 5.55847656 3.42289062 5.05445313 2.70703125 4.53515625 C1 3 1 3 0 0 Z " fill="#EB3F1E" transform="translate(122,505)"/>
<path d="M0 0 C2.83374881 3.20336822 3.5205537 5.78087253 4 10 C3.67 9.34 3.34 8.68 3 8 C0.98330173 6.86649466 0.98330173 6.86649466 -1 6 C-0.67 4.02 -0.34 2.04 0 0 Z " fill="#F96C1B" transform="translate(545,296)"/>
<path d="M0 0 C2.02054804 1.64169528 4.02043058 3.30911778 6 5 C6 5.33 6 5.66 6 6 C2.37 5.67 -1.26 5.34 -5 5 C-5 4.67 -5 4.34 -5 4 C-3.35 3.67 -1.7 3.34 0 3 C0 2.01 0 1.02 0 0 Z " fill="#E53E27" transform="translate(357,705)"/>
<path d="M0 0 C0.66 0.33 1.32 0.66 2 1 C0.71520959 2.50589388 -0.57804082 4.00457375 -1.875 5.5 C-2.95394531 6.75296875 -2.95394531 6.75296875 -4.0546875 8.03125 C-4.69664062 8.6809375 -5.33859375 9.330625 -6 10 C-6.66 10 -7.32 10 -8 10 C-6.5682479 4.98886765 -4.01554307 3.05530451 0 0 Z " fill="#F33D25" transform="translate(556,510)"/>
<path d="M0 0 C0.99 0.33 1.98 0.66 3 1 C0.03 3.97 -2.94 6.94 -6 10 C-6 6.06830895 -4.60580385 4.83572772 -2 2 C-1.34 2 -0.68 2 0 2 C0 1.34 0 0.68 0 0 Z " fill="#FB9E2A" transform="translate(747,905)"/>
<path d="M0 0 C2.00993705 3.01490557 2.72623341 5.2149927 3.625 8.6875 C3.88539062 9.68136719 4.14578125 10.67523438 4.4140625 11.69921875 C4.60742188 12.45847656 4.80078125 13.21773438 5 14 C2.53303195 11.88827535 1.14881742 10.62961216 0.390625 7.421875 C0.34421875 6.54015625 0.2978125 5.6584375 0.25 4.75 C0.19328125 3.85796875 0.1365625 2.9659375 0.078125 2.046875 C0.05234375 1.37140625 0.0265625 0.6959375 0 0 Z " fill="#E99533" transform="translate(63,327)"/>
<path d="M0 0 C1.18414294 3.55242882 0.69535532 4.69830562 -0.4375 8.1875 C-0.72496094 9.08855469 -1.01242188 9.98960937 -1.30859375 10.91796875 C-1.53675781 11.60503906 -1.76492187 12.29210937 -2 13 C-2.33 13 -2.66 13 -3 13 C-3.31563182 7.73946963 -2.66590937 4.55426184 0 0 Z " fill="#FE9639" transform="translate(224,299)"/>
<path d="M0 0 C0.99 0.66 1.98 1.32 3 2 C2.19152271 3.16945792 1.37810888 4.33550461 0.5625 5.5 C0.11003906 6.1496875 -0.34242188 6.799375 -0.80859375 7.46875 C-1.20175781 7.9740625 -1.59492187 8.479375 -2 9 C-2.33 9 -2.66 9 -3 9 C-3 7.35 -3 5.7 -3 4 C-2.01 3.67 -1.02 3.34 0 3 C0 2.01 0 1.02 0 0 Z " fill="#F79E32" transform="translate(932,570)"/>
<path d="M0 0 C0 0.66 0 1.32 0 2 C-0.66 2 -1.32 2 -2 2 C-2.33 2.99 -2.66 3.98 -3 5 C-6.0625 6.1875 -6.0625 6.1875 -9 7 C-3.65789474 0 -3.65789474 0 0 0 Z " fill="#EC3F23" transform="translate(897,510)"/>
<path d="M0 0 C0.8353125 0.37125 0.8353125 0.37125 1.6875 0.75 C0.5625 2.25 0.5625 2.25 -1.3125 3.75 C-4.5 3.9375 -4.5 3.9375 -7.3125 3.75 C-2.88173077 -0.31153846 -2.88173077 -0.31153846 0 0 Z " fill="#F14331" transform="translate(649.3125,459.25)"/>
<path d="M0 0 C0.53625 0.226875 1.0725 0.45375 1.625 0.6875 C-0.685 2.0075 -2.995 3.3275 -5.375 4.6875 C-6.365 4.0275 -7.355 3.3675 -8.375 2.6875 C-2.95961538 -0.38942308 -2.95961538 -0.38942308 0 0 Z " fill="#FD5D2B" transform="translate(782.375,679.3125)"/>
<path d="M0 0 C0.66 1.32 1.32 2.64 2 4 C0.625 6 0.625 6 -1 8 C-1.66 8 -2.32 8 -3 8 C-1.125 2.25 -1.125 2.25 0 0 Z " fill="#EF9D31" transform="translate(124,164)"/>
<path d="M0 0 C0 3.90838866 -1.50567876 5.11594107 -4 8 C-4.33 6.68 -4.66 5.36 -5 4 C-3.35 2.68 -1.7 1.36 0 0 Z " fill="#F49A38" transform="translate(787,858)"/>
<path d="M0 0 C0.33 0 0.66 0 1 0 C1.25 3.25 1.25 3.25 1 7 C-0.32 8.32 -1.64 9.64 -3 11 C-2.01 7.37 -1.02 3.74 0 0 Z " fill="#EB942F" transform="translate(960,327)"/>
<path d="M0 0 C2.31 0 4.62 0 7 0 C6.38125 0.28875 5.7625 0.5775 5.125 0.875 C2.86674235 1.93720042 2.86674235 1.93720042 1 4 C0.01 4 -0.98 4 -2 4 C-1.34 2.68 -0.68 1.36 0 0 Z " fill="#F6A037" transform="translate(46,306)"/>
<path d="M0 0 C0.6875 1.625 0.6875 1.625 1 4 C-0.4375 7.25 -0.4375 7.25 -2 10 C-2.66 10 -3.32 10 -4 10 C-2.8905928 6.51329166 -1.73662334 3.22515763 0 0 Z " fill="#F59930" transform="translate(180,187)"/>
<path d="M0 0 C2.64 1.65 5.28 3.3 8 5 C7.01 5.495 7.01 5.495 6 6 C3.96855359 5.06553465 1.96466413 4.06775224 0 3 C0 2.01 0 1.02 0 0 Z " fill="#FE5A30" transform="translate(568,690)"/>
<path d="M0 0 C0.66 0.33 1.32 0.66 2 1 C-0.8125 3.0625 -0.8125 3.0625 -4 5 C-4.99 4.67 -5.98 4.34 -7 4 C-1.7265625 0.77734375 -1.7265625 0.77734375 0 0 Z " fill="#F13A24" transform="translate(583,491)"/>
<path d="M0 0 C0.66 0 1.32 0 2 0 C1.6875 2.375 1.6875 2.375 1 5 C0.01 5.66 -0.98 6.32 -2 7 C-1.125 2.25 -1.125 2.25 0 0 Z " fill="#F9A22D" transform="translate(133,146)"/>
<path d="M0 0 C-0.33 0.99 -0.66 1.98 -1 3 C-3.31 3 -5.62 3 -8 3 C-4.93882432 0.37613513 -4.26826873 0 0 0 Z " fill="#F49B37" transform="translate(327,44)"/>
</svg>
